<svg width="73" height="15" viewBox="0 0 73 15" fill="none" xmlns="http://www.w3.org/2000/svg">
<rect width="73" height="15" rx="7.5" fill="#FF9F47"/>
<path d="M18.9 7.36C19.2867 7.48667 19.5933 7.7 19.82 8C20.0467 8.29333 20.16 8.66 20.16 9.1C20.16 9.70667 19.9267 10.1767 19.46 10.51C18.9933 10.8367 18.3133 11 17.42 11H13.94V4H17.22C18.0467 4 18.6833 4.16333 19.13 4.49C19.5767 4.81 19.8 5.25333 19.8 5.82C19.8 6.16667 19.72 6.47333 19.56 6.74C19.4 7.00667 19.18 7.21333 18.9 7.36ZM15.24 5.02V6.95H17.08C17.5333 6.95 17.88 6.87 18.12 6.71C18.3667 6.54333 18.49 6.30333 18.49 5.99C18.49 5.67 18.3667 5.43 18.12 5.27C17.88 5.10333 17.5333 5.02 17.08 5.02H15.24ZM17.34 9.98C18.3467 9.98 18.85 9.64333 18.85 8.97C18.85 8.29667 18.3467 7.96 17.34 7.96H15.24V9.98H17.34ZM27.7674 4V11H26.6974L22.8374 6.26V11H21.5474V4H22.6174L26.4774 8.74V4H27.7674ZM34.2231 11L32.7931 8.95C32.7331 8.95667 32.6431 8.96 32.5231 8.96H30.9431V11H29.6431V4H32.5231C33.1298 4 33.6565 4.1 34.1031 4.3C34.5565 4.5 34.9031 4.78667 35.1431 5.16C35.3831 5.53333 35.5031 5.97667 35.5031 6.49C35.5031 7.01667 35.3731 7.47 35.1131 7.85C34.8598 8.23 34.4931 8.51333 34.0131 8.7L35.6231 11H34.2231ZM34.1931 6.49C34.1931 6.04333 34.0465 5.7 33.7531 5.46C33.4598 5.22 33.0298 5.1 32.4631 5.1H30.9431V7.89H32.4631C33.0298 7.89 33.4598 7.77 33.7531 7.53C34.0465 7.28333 34.1931 6.93667 34.1931 6.49ZM41.7813 2.58H42.9013L39.6013 12H38.4812L41.7813 2.58ZM46.1959 4H47.4959V11H46.1959V4ZM55.6092 4V11H54.5392L50.6792 6.26V11H49.3892V4H50.4592L54.3192 8.74V4H55.6092ZM57.4849 4H60.5449C61.2916 4 61.9549 4.14667 62.5349 4.44C63.1149 4.72667 63.5649 5.13667 63.8849 5.67C64.2049 6.19667 64.3649 6.80667 64.3649 7.5C64.3649 8.19333 64.2049 8.80667 63.8849 9.34C63.5649 9.86667 63.1149 10.2767 62.5349 10.57C61.9549 10.8567 61.2916 11 60.5449 11H57.4849V4ZM60.4849 9.9C60.9983 9.9 61.4483 9.80333 61.8349 9.61C62.2283 9.41 62.5283 9.13 62.7349 8.77C62.9483 8.40333 63.0549 7.98 63.0549 7.5C63.0549 7.02 62.9483 6.6 62.7349 6.24C62.5283 5.87333 62.2283 5.59333 61.8349 5.4C61.4483 5.2 60.9983 5.1 60.4849 5.1H58.7849V9.9H60.4849Z" fill="white"/>
</svg>
