<svg width="30" height="15" viewBox="0 0 30 15" fill="none" xmlns="http://www.w3.org/2000/svg">
<rect width="30" height="15" rx="7.5" fill="#FFCC00"/>
<path d="M11.18 11.1C10.4733 11.1 9.83333 10.9467 9.26 10.64C8.69333 10.3267 8.24667 9.89667 7.92 9.35C7.6 8.80333 7.44 8.18667 7.44 7.5C7.44 6.81333 7.60333 6.19667 7.93 5.65C8.25667 5.10333 8.70333 4.67667 9.27 4.37C9.84333 4.05667 10.4833 3.9 11.19 3.9C11.7633 3.9 12.2867 4 12.76 4.2C13.2333 4.4 13.6333 4.69 13.96 5.07L13.12 5.86C12.6133 5.31333 11.99 5.04 11.25 5.04C10.77 5.04 10.34 5.14667 9.96 5.36C9.58 5.56667 9.28333 5.85667 9.07 6.23C8.85667 6.60333 8.75 7.02667 8.75 7.5C8.75 7.97333 8.85667 8.39667 9.07 8.77C9.28333 9.14333 9.58 9.43667 9.96 9.65C10.34 9.85667 10.77 9.96 11.25 9.96C11.99 9.96 12.6133 9.68333 13.12 9.13L13.96 9.93C13.6333 10.31 13.23 10.6 12.75 10.8C12.2767 11 11.7533 11.1 11.18 11.1ZM19.7856 11L18.3556 8.95C18.2956 8.95667 18.2056 8.96 18.0856 8.96H16.5056V11H15.2056V4H18.0856C18.6923 4 19.219 4.1 19.6656 4.3C20.119 4.5 20.4656 4.78667 20.7056 5.16C20.9456 5.53333 21.0656 5.97667 21.0656 6.49C21.0656 7.01667 20.9356 7.47 20.6756 7.85C20.4223 8.23 20.0556 8.51333 19.5756 8.7L21.1856 11H19.7856ZM19.7556 6.49C19.7556 6.04333 19.609 5.7 19.3156 5.46C19.0223 5.22 18.5923 5.1 18.0256 5.1H16.5056V7.89H18.0256C18.5923 7.89 19.0223 7.77 19.3156 7.53C19.609 7.28333 19.7556 6.93667 19.7556 6.49Z" fill="white"/>
</svg>
