<svg width="90" height="19" viewBox="0 0 90 19" fill="none" xmlns="http://www.w3.org/2000/svg">
<rect width="90" height="19" rx="9.5" fill="#FF0000"/>
<path d="M17.9999 5.6H21.8159C22.7279 5.6 23.5319 5.776 24.2279 6.128C24.9319 6.472 25.4759 6.96 25.8599 7.592C26.2519 8.224 26.4479 8.96 26.4479 9.8C26.4479 10.64 26.2519 11.376 25.8599 12.008C25.4759 12.64 24.9319 13.132 24.2279 13.484C23.5319 13.828 22.7279 14 21.8159 14H17.9999V5.6ZM21.7199 12.404C22.5599 12.404 23.2279 12.172 23.7239 11.708C24.2279 11.236 24.4799 10.6 24.4799 9.8C24.4799 9 24.2279 8.368 23.7239 7.904C23.2279 7.432 22.5599 7.196 21.7199 7.196H19.9439V12.404H21.7199ZM34.106 10.796C34.106 10.82 34.094 10.988 34.07 11.3H29.186C29.274 11.7 29.482 12.016 29.81 12.248C30.138 12.48 30.546 12.596 31.034 12.596C31.37 12.596 31.666 12.548 31.922 12.452C32.186 12.348 32.43 12.188 32.654 11.972L33.65 13.052C33.042 13.748 32.154 14.096 30.986 14.096C30.258 14.096 29.614 13.956 29.054 13.676C28.494 13.388 28.062 12.992 27.758 12.488C27.454 11.984 27.302 11.412 27.302 10.772C27.302 10.14 27.45 9.572 27.746 9.068C28.05 8.556 28.462 8.16 28.982 7.88C29.51 7.592 30.098 7.448 30.746 7.448C31.378 7.448 31.95 7.584 32.462 7.856C32.974 8.128 33.374 8.52 33.662 9.032C33.958 9.536 34.106 10.124 34.106 10.796ZM30.758 8.864C30.334 8.864 29.978 8.984 29.69 9.224C29.402 9.464 29.226 9.792 29.162 10.208H32.342C32.278 9.8 32.102 9.476 31.814 9.236C31.526 8.988 31.174 8.864 30.758 8.864ZM38.4723 14.096C37.7843 14.096 37.1643 13.956 36.6123 13.676C36.0683 13.388 35.6403 12.992 35.3283 12.488C35.0243 11.984 34.8723 11.412 34.8723 10.772C34.8723 10.132 35.0243 9.56 35.3283 9.056C35.6403 8.552 36.0683 8.16 36.6123 7.88C37.1643 7.592 37.7843 7.448 38.4723 7.448C39.1523 7.448 39.7443 7.592 40.2483 7.88C40.7603 8.16 41.1323 8.564 41.3643 9.092L39.9123 9.872C39.5763 9.28 39.0923 8.984 38.4603 8.984C37.9723 8.984 37.5683 9.144 37.2483 9.464C36.9283 9.784 36.7683 10.22 36.7683 10.772C36.7683 11.324 36.9283 11.76 37.2483 12.08C37.5683 12.4 37.9723 12.56 38.4603 12.56C39.1003 12.56 39.5843 12.264 39.9123 11.672L41.3643 12.464C41.1323 12.976 40.7603 13.376 40.2483 13.664C39.7443 13.952 39.1523 14.096 38.4723 14.096ZM42.3953 5.096H44.2673V14H42.3953V5.096ZM46.0046 7.544H47.8766V14H46.0046V7.544ZM46.9406 6.644C46.5966 6.644 46.3166 6.544 46.1006 6.344C45.8846 6.144 45.7766 5.896 45.7766 5.6C45.7766 5.304 45.8846 5.056 46.1006 4.856C46.3166 4.656 46.5966 4.556 46.9406 4.556C47.2846 4.556 47.5646 4.652 47.7806 4.844C47.9966 5.036 48.1046 5.276 48.1046 5.564C48.1046 5.876 47.9966 6.136 47.7806 6.344C47.5646 6.544 47.2846 6.644 46.9406 6.644ZM53.538 7.448C54.338 7.448 54.982 7.688 55.47 8.168C55.966 8.648 56.214 9.36 56.214 10.304V14H54.342V10.592C54.342 10.08 54.23 9.7 54.006 9.452C53.782 9.196 53.458 9.068 53.034 9.068C52.562 9.068 52.186 9.216 51.906 9.512C51.626 9.8 51.486 10.232 51.486 10.808V14H49.614V7.544H51.402V8.3C51.65 8.028 51.958 7.82 52.326 7.676C52.694 7.524 53.098 7.448 53.538 7.448ZM64.3052 10.796C64.3052 10.82 64.2932 10.988 64.2692 11.3H59.3852C59.4732 11.7 59.6812 12.016 60.0092 12.248C60.3372 12.48 60.7452 12.596 61.2332 12.596C61.5692 12.596 61.8652 12.548 62.1212 12.452C62.3852 12.348 62.6292 12.188 62.8532 11.972L63.8492 13.052C63.2412 13.748 62.3532 14.096 61.1852 14.096C60.4572 14.096 59.8132 13.956 59.2532 13.676C58.6932 13.388 58.2612 12.992 57.9572 12.488C57.6532 11.984 57.5012 11.412 57.5012 10.772C57.5012 10.14 57.6492 9.572 57.9452 9.068C58.2492 8.556 58.6612 8.16 59.1812 7.88C59.7092 7.592 60.2972 7.448 60.9452 7.448C61.5772 7.448 62.1492 7.584 62.6612 7.856C63.1732 8.128 63.5732 8.52 63.8612 9.032C64.1572 9.536 64.3052 10.124 64.3052 10.796ZM60.9572 8.864C60.5332 8.864 60.1772 8.984 59.8892 9.224C59.6012 9.464 59.4252 9.792 59.3612 10.208H62.5412C62.4772 9.8 62.3012 9.476 62.0132 9.236C61.7252 8.988 61.3732 8.864 60.9572 8.864ZM72.1275 5.096V14H70.3395V13.256C69.8755 13.816 69.2035 14.096 68.3235 14.096C67.7155 14.096 67.1635 13.96 66.6675 13.688C66.1795 13.416 65.7955 13.028 65.5155 12.524C65.2355 12.02 65.0955 11.436 65.0955 10.772C65.0955 10.108 65.2355 9.524 65.5155 9.02C65.7955 8.516 66.1795 8.128 66.6675 7.856C67.1635 7.584 67.7155 7.448 68.3235 7.448C69.1475 7.448 69.7915 7.708 70.2555 8.228V5.096H72.1275ZM68.6475 12.56C69.1195 12.56 69.5115 12.4 69.8235 12.08C70.1355 11.752 70.2915 11.316 70.2915 10.772C70.2915 10.228 70.1355 9.796 69.8235 9.476C69.5115 9.148 69.1195 8.984 68.6475 8.984C68.1675 8.984 67.7715 9.148 67.4595 9.476C67.1475 9.796 66.9915 10.228 66.9915 10.772C66.9915 11.316 67.1475 11.752 67.4595 12.08C67.7715 12.4 68.1675 12.56 68.6475 12.56Z" fill="white"/>
</svg>
