<svg width="90" height="19" viewBox="0 0 90 19" fill="none" xmlns="http://www.w3.org/2000/svg">
<rect width="90" height="19" rx="9.5" fill="#EFEFEF"/>
<path d="M16.0253 5.6H19.8413C20.7533 5.6 21.5573 5.776 22.2533 6.128C22.9573 6.472 23.5013 6.96 23.8853 7.592C24.2773 8.224 24.4733 8.96 24.4733 9.8C24.4733 10.64 24.2773 11.376 23.8853 12.008C23.5013 12.64 22.9573 13.132 22.2533 13.484C21.5573 13.828 20.7533 14 19.8413 14H16.0253V5.6ZM19.7453 12.404C20.5853 12.404 21.2533 12.172 21.7493 11.708C22.2533 11.236 22.5053 10.6 22.5053 9.8C22.5053 9 22.2533 8.368 21.7493 7.904C21.2533 7.432 20.5853 7.196 19.7453 7.196H17.9693V12.404H19.7453ZM32.1314 10.796C32.1314 10.82 32.1194 10.988 32.0954 11.3H27.2114C27.2994 11.7 27.5074 12.016 27.8354 12.248C28.1634 12.48 28.5714 12.596 29.0594 12.596C29.3954 12.596 29.6914 12.548 29.9474 12.452C30.2114 12.348 30.4554 12.188 30.6794 11.972L31.6754 13.052C31.0674 13.748 30.1794 14.096 29.0114 14.096C28.2834 14.096 27.6394 13.956 27.0794 13.676C26.5194 13.388 26.0874 12.992 25.7834 12.488C25.4794 11.984 25.3274 11.412 25.3274 10.772C25.3274 10.14 25.4754 9.572 25.7714 9.068C26.0754 8.556 26.4874 8.16 27.0074 7.88C27.5354 7.592 28.1234 7.448 28.7714 7.448C29.4034 7.448 29.9754 7.584 30.4874 7.856C30.9994 8.128 31.3994 8.52 31.6874 9.032C31.9834 9.536 32.1314 10.124 32.1314 10.796ZM28.7834 8.864C28.3594 8.864 28.0034 8.984 27.7154 9.224C27.4274 9.464 27.2514 9.792 27.1874 10.208H30.3674C30.3034 9.8 30.1274 9.476 29.8394 9.236C29.5514 8.988 29.1994 8.864 28.7834 8.864ZM37.1937 7.448C37.7937 7.448 38.3377 7.588 38.8257 7.868C39.3217 8.14 39.7097 8.528 39.9897 9.032C40.2697 9.528 40.4097 10.108 40.4097 10.772C40.4097 11.436 40.2697 12.02 39.9897 12.524C39.7097 13.02 39.3217 13.408 38.8257 13.688C38.3377 13.96 37.7937 14.096 37.1937 14.096C36.3697 14.096 35.7217 13.836 35.2497 13.316V16.328H33.3777V7.544H35.1657V8.288C35.6297 7.728 36.3057 7.448 37.1937 7.448ZM36.8697 12.56C37.3497 12.56 37.7417 12.4 38.0457 12.08C38.3577 11.752 38.5137 11.316 38.5137 10.772C38.5137 10.228 38.3577 9.796 38.0457 9.476C37.7417 9.148 37.3497 8.984 36.8697 8.984C36.3897 8.984 35.9937 9.148 35.6817 9.476C35.3777 9.796 35.2257 10.228 35.2257 10.772C35.2257 11.316 35.3777 11.752 35.6817 12.08C35.9937 12.4 36.3897 12.56 36.8697 12.56ZM41.6628 5.096H43.5348V14H41.6628V5.096ZM48.3442 14.096C47.6642 14.096 47.0522 13.956 46.5082 13.676C45.9722 13.388 45.5522 12.992 45.2482 12.488C44.9442 11.984 44.7922 11.412 44.7922 10.772C44.7922 10.132 44.9442 9.56 45.2482 9.056C45.5522 8.552 45.9722 8.16 46.5082 7.88C47.0522 7.592 47.6642 7.448 48.3442 7.448C49.0242 7.448 49.6322 7.592 50.1682 7.88C50.7042 8.16 51.1242 8.552 51.4282 9.056C51.7322 9.56 51.8842 10.132 51.8842 10.772C51.8842 11.412 51.7322 11.984 51.4282 12.488C51.1242 12.992 50.7042 13.388 50.1682 13.676C49.6322 13.956 49.0242 14.096 48.3442 14.096ZM48.3442 12.56C48.8242 12.56 49.2162 12.4 49.5202 12.08C49.8322 11.752 49.9882 11.316 49.9882 10.772C49.9882 10.228 49.8322 9.796 49.5202 9.476C49.2162 9.148 48.8242 8.984 48.3442 8.984C47.8642 8.984 47.4682 9.148 47.1562 9.476C46.8442 9.796 46.6882 10.228 46.6882 10.772C46.6882 11.316 46.8442 11.752 47.1562 12.08C47.4682 12.4 47.8642 12.56 48.3442 12.56ZM59.3677 7.544L56.4517 14.396C56.1557 15.14 55.7877 15.664 55.3477 15.968C54.9157 16.272 54.3917 16.424 53.7757 16.424C53.4397 16.424 53.1077 16.372 52.7797 16.268C52.4517 16.164 52.1837 16.02 51.9757 15.836L52.6597 14.504C52.8037 14.632 52.9677 14.732 53.1517 14.804C53.3437 14.876 53.5317 14.912 53.7157 14.912C53.9717 14.912 54.1797 14.848 54.3397 14.72C54.4997 14.6 54.6437 14.396 54.7717 14.108L54.7957 14.048L51.9997 7.544H53.9317L55.7437 11.924L57.5677 7.544H59.3677ZM66.2798 10.796C66.2798 10.82 66.2678 10.988 66.2438 11.3H61.3598C61.4478 11.7 61.6558 12.016 61.9838 12.248C62.3118 12.48 62.7198 12.596 63.2078 12.596C63.5438 12.596 63.8398 12.548 64.0958 12.452C64.3598 12.348 64.6038 12.188 64.8278 11.972L65.8238 13.052C65.2158 13.748 64.3278 14.096 63.1598 14.096C62.4318 14.096 61.7878 13.956 61.2278 13.676C60.6678 13.388 60.2358 12.992 59.9318 12.488C59.6278 11.984 59.4758 11.412 59.4758 10.772C59.4758 10.14 59.6238 9.572 59.9198 9.068C60.2238 8.556 60.6358 8.16 61.1558 7.88C61.6838 7.592 62.2718 7.448 62.9198 7.448C63.5518 7.448 64.1238 7.584 64.6358 7.856C65.1478 8.128 65.5478 8.52 65.8358 9.032C66.1318 9.536 66.2798 10.124 66.2798 10.796ZM62.9318 8.864C62.5078 8.864 62.1518 8.984 61.8638 9.224C61.5758 9.464 61.3998 9.792 61.3358 10.208H64.5158C64.4518 9.8 64.2758 9.476 63.9878 9.236C63.6998 8.988 63.3478 8.864 62.9318 8.864ZM74.1021 5.096V14H72.3141V13.256C71.8501 13.816 71.1781 14.096 70.2981 14.096C69.6901 14.096 69.1381 13.96 68.6421 13.688C68.1541 13.416 67.7701 13.028 67.4901 12.524C67.2101 12.02 67.0701 11.436 67.0701 10.772C67.0701 10.108 67.2101 9.524 67.4901 9.02C67.7701 8.516 68.1541 8.128 68.6421 7.856C69.1381 7.584 69.6901 7.448 70.2981 7.448C71.1221 7.448 71.7661 7.708 72.2301 8.228V5.096H74.1021ZM70.6221 12.56C71.0941 12.56 71.4861 12.4 71.7981 12.08C72.1101 11.752 72.2661 11.316 72.2661 10.772C72.2661 10.228 72.1101 9.796 71.7981 9.476C71.4861 9.148 71.0941 8.984 70.6221 8.984C70.1421 8.984 69.7461 9.148 69.4341 9.476C69.1221 9.796 68.9661 10.228 68.9661 10.772C68.9661 11.316 69.1221 11.752 69.4341 12.08C69.7461 12.4 70.1421 12.56 70.6221 12.56Z" fill="#4D4D4D"/>
</svg>
