<svg width="90" height="19" viewBox="0 0 90 19" fill="none" xmlns="http://www.w3.org/2000/svg">
<rect width="90" height="19" rx="9.5" fill="#8CFF82"/>
<path d="M21.0982 7.16V9.38H24.9862V10.94H21.0982V14H19.1542V5.6H25.5022V7.16H21.0982ZM26.5691 7.544H28.4411V14H26.5691V7.544ZM27.5051 6.644C27.1611 6.644 26.8811 6.544 26.6651 6.344C26.4491 6.144 26.3411 5.896 26.3411 5.6C26.3411 5.304 26.4491 5.056 26.6651 4.856C26.8811 4.656 27.1611 4.556 27.5051 4.556C27.8491 4.556 28.1291 4.652 28.3451 4.844C28.5611 5.036 28.6691 5.276 28.6691 5.564C28.6691 5.876 28.5611 6.136 28.3451 6.344C28.1291 6.544 27.8491 6.644 27.5051 6.644ZM34.1025 7.448C34.9025 7.448 35.5465 7.688 36.0345 8.168C36.5305 8.648 36.7785 9.36 36.7785 10.304V14H34.9065V10.592C34.9065 10.08 34.7945 9.7 34.5705 9.452C34.3465 9.196 34.0225 9.068 33.5985 9.068C33.1265 9.068 32.7505 9.216 32.4705 9.512C32.1905 9.8 32.0505 10.232 32.0505 10.808V14H30.1785V7.544H31.9665V8.3C32.2145 8.028 32.5225 7.82 32.8905 7.676C33.2585 7.524 33.6625 7.448 34.1025 7.448ZM38.4753 7.544H40.3473V14H38.4753V7.544ZM39.4113 6.644C39.0673 6.644 38.7873 6.544 38.5713 6.344C38.3553 6.144 38.2473 5.896 38.2473 5.6C38.2473 5.304 38.3553 5.056 38.5713 4.856C38.7873 4.656 39.0673 4.556 39.4113 4.556C39.7553 4.556 40.0353 4.652 40.2513 4.844C40.4673 5.036 40.5753 5.276 40.5753 5.564C40.5753 5.876 40.4673 6.136 40.2513 6.344C40.0353 6.544 39.7553 6.644 39.4113 6.644ZM44.2567 14.096C43.7207 14.096 43.1967 14.032 42.6847 13.904C42.1727 13.768 41.7647 13.6 41.4607 13.4L42.0847 12.056C42.3727 12.24 42.7207 12.392 43.1287 12.512C43.5367 12.624 43.9367 12.68 44.3287 12.68C45.1207 12.68 45.5167 12.484 45.5167 12.092C45.5167 11.908 45.4087 11.776 45.1927 11.696C44.9767 11.616 44.6447 11.548 44.1967 11.492C43.6687 11.412 43.2327 11.32 42.8887 11.216C42.5447 11.112 42.2447 10.928 41.9887 10.664C41.7407 10.4 41.6167 10.024 41.6167 9.536C41.6167 9.128 41.7327 8.768 41.9647 8.456C42.2047 8.136 42.5487 7.888 42.9967 7.712C43.4527 7.536 43.9887 7.448 44.6047 7.448C45.0607 7.448 45.5127 7.5 45.9607 7.604C46.4167 7.7 46.7927 7.836 47.0887 8.012L46.4647 9.344C45.8967 9.024 45.2767 8.864 44.6047 8.864C44.2047 8.864 43.9047 8.92 43.7047 9.032C43.5047 9.144 43.4047 9.288 43.4047 9.464C43.4047 9.664 43.5127 9.804 43.7287 9.884C43.9447 9.964 44.2887 10.04 44.7607 10.112C45.2887 10.2 45.7207 10.296 46.0567 10.4C46.3927 10.496 46.6847 10.676 46.9327 10.94C47.1807 11.204 47.3047 11.572 47.3047 12.044C47.3047 12.444 47.1847 12.8 46.9447 13.112C46.7047 13.424 46.3527 13.668 45.8887 13.844C45.4327 14.012 44.8887 14.096 44.2567 14.096ZM52.3837 7.448C53.1837 7.448 53.8277 7.688 54.3157 8.168C54.8117 8.648 55.0597 9.36 55.0597 10.304V14H53.1877V10.592C53.1877 10.08 53.0757 9.7 52.8517 9.452C52.6277 9.196 52.3037 9.068 51.8797 9.068C51.4077 9.068 51.0317 9.216 50.7517 9.512C50.4717 9.8 50.3317 10.232 50.3317 10.808V14H48.4597V5.096H50.3317V8.216C50.5797 7.968 50.8797 7.78 51.2317 7.652C51.5837 7.516 51.9677 7.448 52.3837 7.448ZM63.1509 10.796C63.1509 10.82 63.1389 10.988 63.1149 11.3H58.2309C58.3189 11.7 58.5269 12.016 58.8549 12.248C59.1829 12.48 59.5909 12.596 60.0789 12.596C60.4149 12.596 60.7109 12.548 60.9669 12.452C61.2309 12.348 61.4749 12.188 61.6989 11.972L62.6949 13.052C62.0869 13.748 61.1989 14.096 60.0309 14.096C59.3029 14.096 58.6589 13.956 58.0989 13.676C57.5389 13.388 57.1069 12.992 56.8029 12.488C56.4989 11.984 56.3469 11.412 56.3469 10.772C56.3469 10.14 56.4949 9.572 56.7909 9.068C57.0949 8.556 57.5069 8.16 58.0269 7.88C58.5549 7.592 59.1429 7.448 59.7909 7.448C60.4229 7.448 60.9949 7.584 61.5069 7.856C62.0189 8.128 62.4189 8.52 62.7069 9.032C63.0029 9.536 63.1509 10.124 63.1509 10.796ZM59.8029 8.864C59.3789 8.864 59.0229 8.984 58.7349 9.224C58.4469 9.464 58.2709 9.792 58.2069 10.208H61.3869C61.3229 9.8 61.1469 9.476 60.8589 9.236C60.5709 8.988 60.2189 8.864 59.8029 8.864ZM70.9732 5.096V14H69.1852V13.256C68.7212 13.816 68.0492 14.096 67.1692 14.096C66.5612 14.096 66.0092 13.96 65.5132 13.688C65.0252 13.416 64.6412 13.028 64.3612 12.524C64.0812 12.02 63.9412 11.436 63.9412 10.772C63.9412 10.108 64.0812 9.524 64.3612 9.02C64.6412 8.516 65.0252 8.128 65.5132 7.856C66.0092 7.584 66.5612 7.448 67.1692 7.448C67.9932 7.448 68.6372 7.708 69.1012 8.228V5.096H70.9732ZM67.4932 12.56C67.9652 12.56 68.3572 12.4 68.6692 12.08C68.9812 11.752 69.1372 11.316 69.1372 10.772C69.1372 10.228 68.9812 9.796 68.6692 9.476C68.3572 9.148 67.9652 8.984 67.4932 8.984C67.0132 8.984 66.6172 9.148 66.3052 9.476C65.9932 9.796 65.8372 10.228 65.8372 10.772C65.8372 11.316 65.9932 11.752 66.3052 12.08C66.6172 12.4 67.0132 12.56 67.4932 12.56Z" fill="#4D4D4D"/>
</svg>
