<svg width="14" height="13" viewBox="0 0 14 13" fill="none" xmlns="http://www.w3.org/2000/svg">
<path d="M7 0C3.13428 0 0 2.91145 0 6.5C0 10.0906 3.13428 13 7 13C10.8657 13 14 10.0906 14 6.5C14 2.91145 10.8657 0 7 0ZM7 2.88306C7.65473 2.88306 8.18548 3.37591 8.18548 3.98387C8.18548 4.59183 7.65473 5.08468 7 5.08468C6.34527 5.08468 5.81452 4.59183 5.81452 3.98387C5.81452 3.37591 6.34527 2.88306 7 2.88306ZM8.58064 9.54032C8.58064 9.71401 8.42899 9.85484 8.24193 9.85484H5.75806C5.57101 9.85484 5.41935 9.71401 5.41935 9.54032V8.91129C5.41935 8.7376 5.57101 8.59677 5.75806 8.59677H6.09677V6.91935H5.75806C5.57101 6.91935 5.41935 6.77853 5.41935 6.60484V5.97581C5.41935 5.80211 5.57101 5.66129 5.75806 5.66129H7.56452C7.75157 5.66129 7.90323 5.80211 7.90323 5.97581V8.59677H8.24193C8.42899 8.59677 8.58064 8.7376 8.58064 8.91129V9.54032Z" fill="#C4C4C4"/>
</svg>
