<svg width="30" height="15" viewBox="0 0 30 15" fill="none" xmlns="http://www.w3.org/2000/svg">
<rect width="30" height="15" rx="7.5" fill="#FF0000"/>
<path d="M14.16 4V11H13.09L9.23 6.26V11H7.94V4H9.01L12.87 8.74V4H14.16ZM20.6157 11L19.1857 8.95C19.1257 8.95667 19.0357 8.96 18.9157 8.96H17.3357V11H16.0357V4H18.9157C19.5224 4 20.049 4.1 20.4957 4.3C20.949 4.5 21.2957 4.78667 21.5357 5.16C21.7757 5.53333 21.8957 5.97667 21.8957 6.49C21.8957 7.01667 21.7657 7.47 21.5057 7.85C21.2524 8.23 20.8857 8.51333 20.4057 8.7L22.0157 11H20.6157ZM20.5857 6.49C20.5857 6.04333 20.439 5.7 20.1457 5.46C19.8524 5.22 19.4224 5.1 18.8557 5.1H17.3357V7.89H18.8557C19.4224 7.89 19.8524 7.77 20.1457 7.53C20.439 7.28333 20.5857 6.93667 20.5857 6.49Z" fill="white"/>
</svg>
