<svg width="90" height="19" viewBox="0 0 90 19" fill="none" xmlns="http://www.w3.org/2000/svg">
<rect width="90" height="19" rx="9.5" fill="#FFEC9E"/>
<path d="M12.0405 14.144C10.8405 14.144 9.9045 13.812 9.2325 13.148C8.5685 12.484 8.2365 11.536 8.2365 10.304V5.6H10.1805V10.232C10.1805 11.736 10.8045 12.488 12.0525 12.488C12.6605 12.488 13.1245 12.308 13.4445 11.948C13.7645 11.58 13.9245 11.008 13.9245 10.232V5.6H15.8445V10.304C15.8445 11.536 15.5085 12.484 14.8365 13.148C14.1725 13.812 13.2405 14.144 12.0405 14.144ZM21.5575 7.448C22.3575 7.448 23.0015 7.688 23.4895 8.168C23.9855 8.648 24.2335 9.36 24.2335 10.304V14H22.3615V10.592C22.3615 10.08 22.2495 9.7 22.0255 9.452C21.8015 9.196 21.4775 9.068 21.0535 9.068C20.5815 9.068 20.2055 9.216 19.9255 9.512C19.6455 9.8 19.5055 10.232 19.5055 10.808V14H17.6335V7.544H19.4215V8.3C19.6695 8.028 19.9775 7.82 20.3455 7.676C20.7135 7.524 21.1175 7.448 21.5575 7.448ZM28.5344 7.448C29.5344 7.448 30.3024 7.688 30.8384 8.168C31.3744 8.64 31.6424 9.356 31.6424 10.316V14H29.8904V13.196C29.5384 13.796 28.8824 14.096 27.9224 14.096C27.4264 14.096 26.9944 14.012 26.6264 13.844C26.2664 13.676 25.9904 13.444 25.7984 13.148C25.6064 12.852 25.5104 12.516 25.5104 12.14C25.5104 11.54 25.7344 11.068 26.1824 10.724C26.6384 10.38 27.3384 10.208 28.2824 10.208H29.7704C29.7704 9.8 29.6464 9.488 29.3984 9.272C29.1504 9.048 28.7784 8.936 28.2824 8.936C27.9384 8.936 27.5984 8.992 27.2624 9.104C26.9344 9.208 26.6544 9.352 26.4224 9.536L25.7504 8.228C26.1024 7.98 26.5224 7.788 27.0104 7.652C27.5064 7.516 28.0144 7.448 28.5344 7.448ZM28.3904 12.836C28.7104 12.836 28.9944 12.764 29.2424 12.62C29.4904 12.468 29.6664 12.248 29.7704 11.96V11.3H28.4864C27.7184 11.3 27.3344 11.552 27.3344 12.056C27.3344 12.296 27.4264 12.488 27.6104 12.632C27.8024 12.768 28.0624 12.836 28.3904 12.836ZM37.5007 13.688C37.3167 13.824 37.0887 13.928 36.8167 14C36.5527 14.064 36.2727 14.096 35.9767 14.096C35.2087 14.096 34.6127 13.9 34.1887 13.508C33.7727 13.116 33.5647 12.54 33.5647 11.78V9.128H32.5687V7.688H33.5647V6.116H35.4367V7.688H37.0447V9.128H35.4367V11.756C35.4367 12.028 35.5047 12.24 35.6407 12.392C35.7847 12.536 35.9847 12.608 36.2407 12.608C36.5367 12.608 36.7887 12.528 36.9967 12.368L37.5007 13.688ZM42.5749 13.688C42.3909 13.824 42.1629 13.928 41.8909 14C41.6269 14.064 41.3469 14.096 41.0509 14.096C40.2829 14.096 39.6869 13.9 39.2629 13.508C38.8469 13.116 38.6389 12.54 38.6389 11.78V9.128H37.6429V7.688H38.6389V6.116H40.5109V7.688H42.1189V9.128H40.5109V11.756C40.5109 12.028 40.5789 12.24 40.7149 12.392C40.8589 12.536 41.0589 12.608 41.3149 12.608C41.6109 12.608 41.8629 12.528 42.0709 12.368L42.5749 13.688ZM49.7505 10.796C49.7505 10.82 49.7385 10.988 49.7145 11.3H44.8305C44.9185 11.7 45.1265 12.016 45.4545 12.248C45.7825 12.48 46.1905 12.596 46.6785 12.596C47.0145 12.596 47.3105 12.548 47.5665 12.452C47.8305 12.348 48.0745 12.188 48.2985 11.972L49.2945 13.052C48.6865 13.748 47.7985 14.096 46.6305 14.096C45.9025 14.096 45.2585 13.956 44.6985 13.676C44.1385 13.388 43.7065 12.992 43.4025 12.488C43.0985 11.984 42.9465 11.412 42.9465 10.772C42.9465 10.14 43.0945 9.572 43.3905 9.068C43.6945 8.556 44.1065 8.16 44.6265 7.88C45.1545 7.592 45.7425 7.448 46.3905 7.448C47.0225 7.448 47.5945 7.584 48.1065 7.856C48.6185 8.128 49.0185 8.52 49.3065 9.032C49.6025 9.536 49.7505 10.124 49.7505 10.796ZM46.4025 8.864C45.9785 8.864 45.6225 8.984 45.3345 9.224C45.0465 9.464 44.8705 9.792 44.8065 10.208H47.9865C47.9225 9.8 47.7465 9.476 47.4585 9.236C47.1705 8.988 46.8185 8.864 46.4025 8.864ZM54.9208 7.448C55.7208 7.448 56.3648 7.688 56.8528 8.168C57.3488 8.648 57.5968 9.36 57.5968 10.304V14H55.7248V10.592C55.7248 10.08 55.6128 9.7 55.3888 9.452C55.1648 9.196 54.8408 9.068 54.4168 9.068C53.9448 9.068 53.5688 9.216 53.2888 9.512C53.0088 9.8 52.8688 10.232 52.8688 10.808V14H50.9968V7.544H52.7848V8.3C53.0328 8.028 53.3408 7.82 53.7088 7.676C54.0768 7.524 54.4808 7.448 54.9208 7.448ZM65.94 5.096V14H64.152V13.256C63.688 13.816 63.016 14.096 62.136 14.096C61.528 14.096 60.976 13.96 60.48 13.688C59.992 13.416 59.608 13.028 59.328 12.524C59.048 12.02 58.908 11.436 58.908 10.772C58.908 10.108 59.048 9.524 59.328 9.02C59.608 8.516 59.992 8.128 60.48 7.856C60.976 7.584 61.528 7.448 62.136 7.448C62.96 7.448 63.604 7.708 64.068 8.228V5.096H65.94ZM62.46 12.56C62.932 12.56 63.324 12.4 63.636 12.08C63.948 11.752 64.104 11.316 64.104 10.772C64.104 10.228 63.948 9.796 63.636 9.476C63.324 9.148 62.932 8.984 62.46 8.984C61.98 8.984 61.584 9.148 61.272 9.476C60.96 9.796 60.804 10.228 60.804 10.772C60.804 11.316 60.96 11.752 61.272 12.08C61.584 12.4 61.98 12.56 62.46 12.56ZM73.9966 10.796C73.9966 10.82 73.9846 10.988 73.9606 11.3H69.0766C69.1646 11.7 69.3726 12.016 69.7006 12.248C70.0286 12.48 70.4366 12.596 70.9246 12.596C71.2606 12.596 71.5566 12.548 71.8126 12.452C72.0766 12.348 72.3206 12.188 72.5446 11.972L73.5406 13.052C72.9326 13.748 72.0446 14.096 70.8766 14.096C70.1486 14.096 69.5046 13.956 68.9446 13.676C68.3846 13.388 67.9526 12.992 67.6486 12.488C67.3446 11.984 67.1926 11.412 67.1926 10.772C67.1926 10.14 67.3406 9.572 67.6366 9.068C67.9406 8.556 68.3526 8.16 68.8726 7.88C69.4006 7.592 69.9886 7.448 70.6366 7.448C71.2686 7.448 71.8406 7.584 72.3526 7.856C72.8646 8.128 73.2646 8.52 73.5526 9.032C73.8486 9.536 73.9966 10.124 73.9966 10.796ZM70.6486 8.864C70.2246 8.864 69.8686 8.984 69.5806 9.224C69.2926 9.464 69.1166 9.792 69.0526 10.208H72.2326C72.1686 9.8 71.9926 9.476 71.7046 9.236C71.4166 8.988 71.0646 8.864 70.6486 8.864ZM81.8189 5.096V14H80.0309V13.256C79.5669 13.816 78.8949 14.096 78.0149 14.096C77.4069 14.096 76.8549 13.96 76.3589 13.688C75.8709 13.416 75.4869 13.028 75.2069 12.524C74.9269 12.02 74.7869 11.436 74.7869 10.772C74.7869 10.108 74.9269 9.524 75.2069 9.02C75.4869 8.516 75.8709 8.128 76.3589 7.856C76.8549 7.584 77.4069 7.448 78.0149 7.448C78.8389 7.448 79.4829 7.708 79.9469 8.228V5.096H81.8189ZM78.3389 12.56C78.8109 12.56 79.2029 12.4 79.5149 12.08C79.8269 11.752 79.9829 11.316 79.9829 10.772C79.9829 10.228 79.8269 9.796 79.5149 9.476C79.2029 9.148 78.8109 8.984 78.3389 8.984C77.8589 8.984 77.4629 9.148 77.1509 9.476C76.8389 9.796 76.6829 10.228 76.6829 10.772C76.6829 11.316 76.8389 11.752 77.1509 12.08C77.4629 12.4 77.8589 12.56 78.3389 12.56Z" fill="#4D4D4D"/>
</svg>
