<svg width="24" height="24" viewBox="0 0 24 24" fill="none" xmlns="http://www.w3.org/2000/svg">
<path d="M13.25 16.4993H10.75C10.3344 16.4993 10 16.1231 10 15.6555V9.74835H7.25938C6.70312 9.74835 6.425 8.99238 6.81875 8.54935L11.5719 3.19778C11.8063 2.93407 12.1906 2.93407 12.425 3.19778L17.1812 8.54935C17.575 8.99238 17.2969 9.74835 16.7406 9.74835H14V15.6555C14 16.1231 13.6656 16.4993 13.25 16.4993ZM20 16.2181V20.1561C20 20.6238 19.6656 21 19.25 21H4.75C4.33437 21 4 20.6238 4 20.1561V16.2181C4 15.7504 4.33437 15.3742 4.75 15.3742H9V15.6555C9 16.742 9.78438 17.6245 10.75 17.6245H13.25C14.2156 17.6245 15 16.742 15 15.6555V15.3742H19.25C19.6656 15.3742 20 15.7504 20 16.2181ZM16.125 19.3123C16.125 18.9255 15.8438 18.609 15.5 18.609C15.1562 18.609 14.875 18.9255 14.875 19.3123C14.875 19.699 15.1562 20.0155 15.5 20.0155C15.8438 20.0155 16.125 19.699 16.125 19.3123ZM18.125 19.3123C18.125 18.9255 17.8438 18.609 17.5 18.609C17.1562 18.609 16.875 18.9255 16.875 19.3123C16.875 19.699 17.1562 20.0155 17.5 20.0155C17.8438 20.0155 18.125 19.699 18.125 19.3123Z" fill="#C4C4C4"/>
</svg>
