<svg width="73" height="15" viewBox="0 0 73 15" fill="none" xmlns="http://www.w3.org/2000/svg">
<rect width="73" height="15" rx="7.5" fill="#FF9F47"/>
<path d="M10.9 7.36C11.2867 7.48667 11.5933 7.7 11.82 8C12.0467 8.29333 12.16 8.66 12.16 9.1C12.16 9.70667 11.9267 10.1767 11.46 10.51C10.9933 10.8367 10.3133 11 9.42 11H5.94V4H9.22C10.0467 4 10.6833 4.16333 11.13 4.49C11.5767 4.81 11.8 5.25333 11.8 5.82C11.8 6.16667 11.72 6.47333 11.56 6.74C11.4 7.00667 11.18 7.21333 10.9 7.36ZM7.24 5.02V6.95H9.08C9.53333 6.95 9.88 6.87 10.12 6.71C10.3667 6.54333 10.49 6.30333 10.49 5.99C10.49 5.67 10.3667 5.43 10.12 5.27C9.88 5.10333 9.53333 5.02 9.08 5.02H7.24ZM9.34 9.98C10.3467 9.98 10.85 9.64333 10.85 8.97C10.85 8.29667 10.3467 7.96 9.34 7.96H7.24V9.98H9.34ZM19.7674 4V11H18.6974L14.8374 6.26V11H13.5474V4H14.6174L18.4774 8.74V4H19.7674ZM26.2231 11L24.7931 8.95C24.7331 8.95667 24.6431 8.96 24.5231 8.96H22.9431V11H21.6431V4H24.5231C25.1298 4 25.6565 4.1 26.1031 4.3C26.5565 4.5 26.9031 4.78667 27.1431 5.16C27.3831 5.53333 27.5031 5.97667 27.5031 6.49C27.5031 7.01667 27.3731 7.47 27.1131 7.85C26.8598 8.23 26.4931 8.51333 26.0131 8.7L27.6231 11H26.2231ZM26.1931 6.49C26.1931 6.04333 26.0465 5.7 25.7531 5.46C25.4598 5.22 25.0298 5.1 24.4631 5.1H22.9431V7.89H24.4631C25.0298 7.89 25.4598 7.77 25.7531 7.53C26.0465 7.28333 26.1931 6.93667 26.1931 6.49ZM33.7813 2.58H34.9013L31.6013 12H30.4812L33.7813 2.58ZM41.4359 11.1C40.7292 11.1 40.0892 10.9467 39.5159 10.64C38.9492 10.3267 38.5025 9.89667 38.1759 9.35C37.8559 8.80333 37.6959 8.18667 37.6959 7.5C37.6959 6.81333 37.8592 6.19667 38.1859 5.65C38.5125 5.10333 38.9592 4.67667 39.5259 4.37C40.0992 4.05667 40.7392 3.9 41.4459 3.9C42.0192 3.9 42.5425 4 43.0159 4.2C43.4892 4.4 43.8892 4.69 44.2159 5.07L43.3759 5.86C42.8692 5.31333 42.2459 5.04 41.5059 5.04C41.0259 5.04 40.5959 5.14667 40.2159 5.36C39.8359 5.56667 39.5392 5.85667 39.3259 6.23C39.1125 6.60333 39.0059 7.02667 39.0059 7.5C39.0059 7.97333 39.1125 8.39667 39.3259 8.77C39.5392 9.14333 39.8359 9.43667 40.2159 9.65C40.5959 9.85667 41.0259 9.96 41.5059 9.96C42.2459 9.96 42.8692 9.68333 43.3759 9.13L44.2159 9.93C43.8892 10.31 43.4859 10.6 43.0059 10.8C42.5325 11 42.0092 11.1 41.4359 11.1ZM48.585 11.1C47.8717 11.1 47.2283 10.9467 46.655 10.64C46.0817 10.3267 45.6317 9.89667 45.305 9.35C44.9783 8.79667 44.815 8.18 44.815 7.5C44.815 6.82 44.9783 6.20667 45.305 5.66C45.6317 5.10667 46.0817 4.67667 46.655 4.37C47.2283 4.05667 47.8717 3.9 48.585 3.9C49.2983 3.9 49.9417 4.05667 50.515 4.37C51.0883 4.67667 51.5383 5.10333 51.865 5.65C52.1917 6.19667 52.355 6.81333 52.355 7.5C52.355 8.18667 52.1917 8.80333 51.865 9.35C51.5383 9.89667 51.0883 10.3267 50.515 10.64C49.9417 10.9467 49.2983 11.1 48.585 11.1ZM48.585 9.96C49.0517 9.96 49.4717 9.85667 49.845 9.65C50.2183 9.43667 50.5117 9.14333 50.725 8.77C50.9383 8.39 51.045 7.96667 51.045 7.5C51.045 7.03333 50.9383 6.61333 50.725 6.24C50.5117 5.86 50.2183 5.56667 49.845 5.36C49.4717 5.14667 49.0517 5.04 48.585 5.04C48.1183 5.04 47.6983 5.14667 47.325 5.36C46.9517 5.56667 46.6583 5.86 46.445 6.24C46.2317 6.61333 46.125 7.03333 46.125 7.5C46.125 7.96667 46.2317 8.39 46.445 8.77C46.6583 9.14333 46.9517 9.43667 47.325 9.65C47.6983 9.85667 48.1183 9.96 48.585 9.96ZM60.163 11L60.153 6.36L57.853 10.2H57.273L54.973 6.42V11H53.733V4H54.803L57.583 8.64L60.313 4H61.383L61.393 11H60.163ZM66.1638 4C66.7704 4 67.2971 4.1 67.7438 4.3C68.1971 4.5 68.5438 4.78667 68.7838 5.16C69.0238 5.53333 69.1438 5.97667 69.1438 6.49C69.1438 6.99667 69.0238 7.44 68.7838 7.82C68.5438 8.19333 68.1971 8.48 67.7438 8.68C67.2971 8.88 66.7704 8.98 66.1638 8.98H64.5838V11H63.2838V4H66.1638ZM66.1038 7.88C66.6704 7.88 67.1004 7.76 67.3937 7.52C67.6871 7.28 67.8338 6.93667 67.8338 6.49C67.8338 6.04333 67.6871 5.7 67.3937 5.46C67.1004 5.22 66.6704 5.1 66.1038 5.1H64.5838V7.88H66.1038Z" fill="white"/>
</svg>
