<svg width="18" height="16" viewBox="0 0 18 16" fill="none" xmlns="http://www.w3.org/2000/svg">
<path d="M12.4118 8L17.529 3.45136C18.157 2.89318 18.157 1.98818 17.529 1.42955L16.3918 0.418636C15.7638 -0.139545 14.7457 -0.139545 14.1172 0.418636L9 4.96727L3.88278 0.418636C3.25483 -0.139545 2.2367 -0.139545 1.60824 0.418636L0.470966 1.42955C-0.156989 1.98773 -0.156989 2.89273 0.470966 3.45136L5.58818 8L0.470966 12.5486C-0.156989 13.1068 -0.156989 14.0118 0.470966 14.5705L1.60824 15.5814C2.23619 16.1395 3.25483 16.1395 3.88278 15.5814L9 11.0327L14.1172 15.5814C14.7452 16.1395 15.7638 16.1395 16.3918 15.5814L17.529 14.5705C18.157 14.0123 18.157 13.1073 17.529 12.5486L12.4118 8Z" fill="#4D4D4D"/>
</svg>
