<svg width="28" height="28" viewBox="0 0 28 28" fill="none" xmlns="http://www.w3.org/2000/svg">
<path d="M28 14C28 21.7337 21.7314 28 14 28C6.26856 28 0 21.7337 0 14C0 6.27081 6.26856 0 14 0C21.7314 0 28 6.27081 28 14ZM14.3757 4.62903C11.2992 4.62903 9.3371 5.92499 7.79631 8.22827C7.59669 8.52668 7.66348 8.92912 7.94957 9.14606L9.90839 10.6313C10.2022 10.8541 10.6209 10.8011 10.8492 10.5115C11.8576 9.23244 12.5491 8.49072 14.084 8.49072C15.2373 8.49072 16.6637 9.23294 16.6637 10.3512C16.6637 11.1967 15.9658 11.6308 14.8271 12.2692C13.4992 13.0137 11.7419 13.9402 11.7419 16.2581V16.4839C11.7419 16.858 12.0452 17.1613 12.4194 17.1613H15.5806C15.9547 17.1613 16.2581 16.858 16.2581 16.4839V16.4086C16.2581 14.8019 20.954 14.735 20.954 10.3871C20.954 7.11279 17.5576 4.62903 14.3757 4.62903ZM14 18.629C12.5681 18.629 11.4032 19.7939 11.4032 21.2258C11.4032 22.6576 12.5681 23.8226 14 23.8226C15.4319 23.8226 16.5968 22.6576 16.5968 21.2258C16.5968 19.7939 15.4319 18.629 14 18.629Z" fill="#A7A7A7"/>
</svg>
