<svg width="34" height="34" viewBox="0 0 34 34" fill="none" xmlns="http://www.w3.org/2000/svg">
<path d="M18.7708 23.3741H15.2292C14.6404 23.3741 14.1667 22.8411 14.1667 22.1786V13.8102H10.2841C9.4961 13.8102 9.10209 12.7392 9.6599 12.1116L16.3935 4.53019C16.7255 4.1566 17.2701 4.1566 17.6021 4.53019L24.3401 12.1116C24.8979 12.7392 24.5039 13.8102 23.7159 13.8102H19.8333V22.1786C19.8333 22.8411 19.3596 23.3741 18.7708 23.3741ZM28.3333 22.9756V28.5545C28.3333 29.217 27.8596 29.75 27.2708 29.75H6.72917C6.14037 29.75 5.66667 29.217 5.66667 28.5545V22.9756C5.66667 22.3131 6.14037 21.7801 6.72917 21.7801H12.75V22.1786C12.75 23.7178 13.8612 24.9681 15.2292 24.9681H18.7708C20.1388 24.9681 21.25 23.7178 21.25 22.1786V21.7801H27.2708C27.8596 21.7801 28.3333 22.3131 28.3333 22.9756ZM22.8438 27.359C22.8438 26.8111 22.4453 26.3628 21.9583 26.3628C21.4714 26.3628 21.0729 26.8111 21.0729 27.359C21.0729 27.907 21.4714 28.3553 21.9583 28.3553C22.4453 28.3553 22.8438 27.907 22.8438 27.359ZM25.6771 27.359C25.6771 26.8111 25.2786 26.3628 24.7917 26.3628C24.3047 26.3628 23.9063 26.8111 23.9063 27.359C23.9063 27.907 24.3047 28.3553 24.7917 28.3553C25.2786 28.3553 25.6771 27.907 25.6771 27.359Z" fill="#4D4D4D"/>
</svg>
